<?xml version="1.0" encoding="UTF-8"?>
<svg id="_Слой_1" data-name="Слой_1" xmlns="http://www.w3.org/2000/svg" viewBox="0 0 1834.2 1794">
  <defs>
    <style>
      .cls-1 {
        fill: #fff;
      }
    </style>
  </defs>
  <path class="cls-1" d="M1035.97,841.12c-1.06,14.42-2.12,28.85-3.08,43.39-.74,10.18-1.59,20.47-2.23,30.66-.21,2.77.21,2.77-2.86,2.77h-57.71c-3.82,0-3.4-.42-3.4,3.49v228.2c0,3.71.53,3.28-3.5,3.28-29.91.1-59.83.1-89.75,0-3.71,0-3.29.32-3.29-3.28v-226.5c0-4.03.53-3.61-3.5-3.61h-46.68q-2.33,0-2.33-2.33v-76.49q0-2.23,2.33-2.23h45.3c3.71,0,3.29.32,3.29-3.4,0-22.27-.11-44.66,0-67.05,0-13.69,2.76-26.73,9.23-38.93,6.58-12.41,16.23-21.64,28.54-28.21,11.88-6.48,24.72-9.77,37.98-11.46,6.68-.75,13.37-1.07,20.05-1.07,22.81.1,45.62,0,68.43.1,3.5,0,3.18-.42,3.18,3.08v74.05c0,3.08.42,2.97-3.08,2.97h-40.53c-4.67,0-9.23.53-13.68,2.33-8.8,3.5-13.15,10.29-13.58,19.62-.11,2.97,0,5.84,0,8.81,0,11.78,0,23.44-.11,35.12,0,.63.11,1.27,0,1.91-.11,1.17.32,1.91,1.7,1.7h66.41c3.5,0,3.08,0,2.86,3.08Z"/>
  <path class="cls-1" d="M927.09,1568.32c-352.02,0-638.4-286.39-638.4-638.41S575.07,291.5,927.09,291.5s638.42,286.39,638.42,638.41-286.4,638.41-638.42,638.41ZM927.09,360.87c-313.77,0-569.03,255.27-569.03,569.04s255.26,569.04,569.03,569.04,569.05-255.27,569.05-569.04-255.28-569.04-569.05-569.04Z"/>
</svg>