<?xml version="1.0" encoding="UTF-8"?>
<svg id="_Слой_1" data-name="Слой_1" xmlns="http://www.w3.org/2000/svg" viewBox="0 0 1834.2 1794">
  <defs>
    <style>
      .cls-1 {
        fill: #fff;
      }
    </style>
  </defs>
  <g>
    <path class="cls-1" d="M1197.94,641.93c0-59.53-43.6-105.14-102.97-105.48-116.38-.51-232.6-.33-348.99,0-59.2,0-106.15,46.46-105.32,107.83,1.34,106.83,1.34,213.82,0,320.65-.84,65.92,52.49,108.68,107.67,107.84,56.85-.85,113.87-.18,170.72-.18s114.71-.67,171.89.18c58.19.67,108.33-45.28,107.33-107.01-1.51-107.99-.33-215.82-.33-323.82ZM1139.24,967.09c0,28.18-17.94,46.46-46.45,46.63-58.03.16-115.88,0-173.91,0h-169.88c-31.86,0-49.31-17.44-49.31-49.13v-319.65c0-32.36,17.27-49.8,49.81-49.8,113.2-.16,226.4,0,339.59,0,5.54,0,11.24.51,16.6,1.67,20.63,4.7,33.54,21.14,33.54,42.27v328.02Z"/>
    <path class="cls-1" d="M922.07,641.6c-82.34-1.02-150.26,64.39-151.6,146.07-1.34,82.84,64.9,150.59,148.08,151.93,80.33,1.18,148.42-65.07,149.76-145.74,1.51-82.84-64.06-151.09-146.23-152.26ZM917.54,880.57c-50.98-1.34-90.05-42.78-88.38-93.76,1.51-48.46,43.44-87.86,92.4-86.86,49.81,1.18,89.39,42.76,88.21,92.91-1.17,49.8-42.59,89.04-92.24,87.72Z"/>
    <path class="cls-1" d="M1083.57,650.48c.17,14.59-11.74,26.5-26.5,26.33-14.09,0-25.99-11.74-26.16-25.83-.34-14.25,11.74-26.66,26.16-27.01,14.25-.33,26.5,11.74,26.5,26.5Z"/>
  </g>
  <path class="cls-1" d="M927.09,1427.08c-352.02,0-638.4-286.39-638.4-638.41S575.07,150.25,927.09,150.25s638.42,286.39,638.42,638.41-286.4,638.41-638.42,638.41ZM927.09,219.62c-313.77,0-569.03,255.27-569.03,569.04s255.26,569.04,569.03,569.04,569.05-255.27,569.05-569.04S1240.86,219.62,927.09,219.62Z"/>
</svg>