<?xml version="1.0" encoding="UTF-8"?>
<svg id="_Слой_1" data-name="Слой_1" xmlns="http://www.w3.org/2000/svg" viewBox="0 0 1834.2 1794">
  <defs>
    <style>
      .cls-1 {
        fill: #fff;
      }
    </style>
  </defs>
  <path class="cls-1" d="M862.02,1173.59c0-80.92-.4-159.54.12-238.16.49-74.75,53.07-134.02,127.28-142.81,20.36-2.41,41.26-.37,63.64-.37,0-6.98,0-12.11,0-17.24,0-41.49-.24-82.99.06-124.48.54-75.51,50.72-135.89,125.74-143.65,45.23-4.68,91.85-3.85,137.08,1.25,66.92,7.54,117.33,67.16,118.86,134.63,1.09,48.22.53,96.49.17,144.73-.07,8.81,2.19,13.23,10.7,17.3,55.22,26.43,84.14,70.86,84.81,132.04.86,78.13.21,156.28.21,236.75,5.57,0,10.62,0,15.67,0,41.01,0,82.02-.13,123.03.04,37.65.16,58.77,26.79,49.72,63.4-25.11,101.58-50.19,203.17-76.09,304.55-17.18,67.24-72.46,109.57-142,109.59-362.33.12-724.67.13-1087,0-70.12-.02-125.16-42.94-142.39-110.98-25.34-100.03-50.29-200.16-75.15-300.31-10.02-40.37,10.5-66.27,52.05-66.27,198.29-.04,396.59-.02,594.88-.02,5.68,0,11.35,0,18.61,0ZM1612.83,1269.12h-19.91c-110.47,0-220.93,0-331.4,0-52.58,0-105.16-.03-157.74,0-21.99.01-38.39-9.49-46.99-29.76-13.82-32.58,10.11-65.63,47.45-65.7,104.2-.19,208.39-.07,312.59-.07,5.65,0,11.31,0,17.43,0v-94.44h-476.73c0,44.46.01,87.84,0,131.22-.01,41.8-16.97,58.74-58.81,58.75-192.47,0-384.95,0-577.42,0h-17.82c.43,4.12.39,7,1.06,9.7,19.89,79.52,39.68,159.08,59.91,238.52,6.63,26.03,23.88,38.34,52.27,38.34,360.35.05,720.7.05,1081.04,0,30.42,0,46.24-12.45,53.72-42,13.26-52.36,26.41-104.75,39.56-157.14,7.14-28.45,14.2-56.93,21.8-87.42ZM1435.17,981.88c0-15.12.1-29.03-.02-42.95-.28-32.56-19.68-51.81-52.57-51.9-47.75-.13-95.51-.04-143.26-.04-77.18,0-154.35-.11-231.53.07-26.67.06-47.25,16.52-49.54,41.13-1.63,17.54-.32,35.36-.32,53.67h477.24ZM1339.64,790.75c0-46.87.16-93.04-.06-139.2-.15-31.66-19.84-50.93-51.88-51.1-28.94-.16-57.88-.14-86.81,0-33.06.16-52.14,19.12-52.27,52.09-.15,42.44-.07,84.88,0,127.33,0,3.66.66,7.32,1.01,10.89h189.99Z"/>
  <path class="cls-1" d="M1053.11,347.5c-3.51-76.43,54.9-128.88,118.35-129.38,15.51-.12,23.76-9.2,24.71-24.59.56-9.13-.22-18.36.64-27.45,2.19-23.34,20.65-41.38,43.42-43.16,22.86-1.78,45.85,12.93,49.57,35.62,8.92,54.52-4.18,111.6-63.81,142.04-14.56,7.43-31.94,10.51-48.41,12.71-21.38,2.85-28.79,9.28-28.97,31.15-.05,5.78.13,11.58-.08,17.35-1.01,27.3-21.78,47.74-48.16,47.5-25.75-.24-46.14-20.48-47.21-47-.21-5.29-.03-10.61-.03-14.78Z"/>
  <path class="cls-1" d="M1578.38,186.98c-.24,73.4-44.41,120.75-118.24,126.84-16.12,1.33-24.31,9.75-24.9,25.99-.3,8.19.26,16.41-.27,24.58-1.58,24.42-20.87,43.52-44.86,44.83-23.96,1.31-46.78-15.55-49.44-39.52-3.09-27.87-2.77-56.01,10.15-82.13,21.02-42.5,55.42-65.53,102.64-69.04,21.85-1.63,29.13-8.76,29.46-30.53.1-6.27-.17-12.55.19-18.8,1.54-26.72,22-46.5,47.78-46.41,25.63.09,45.98,20.08,47.46,46.82.32,5.77.05,11.57.05,17.35Z"/>
  <path class="cls-1" d="M766.56,1411.3c.55-26.32,22.3-47.11,48.73-46.57,26.18.54,47.17,22.49,46.62,48.75-.55,26.18-22.51,47.17-48.75,46.61-26.16-.56-47.14-22.53-46.59-48.79Z"/>
  <path class="cls-1" d="M1053.15,1411.46c.47-26.33,22.14-47.19,48.56-46.73,26.18.46,47.25,22.33,46.78,48.58-.46,26.18-22.36,47.25-48.59,46.78-26.17-.47-47.22-22.37-46.75-48.63Z"/>
  <path class="cls-1" d="M1387.66,1364.72c26.22.14,47.57,21.72,47.43,47.96-.14,26.21-21.74,47.57-47.97,47.42-26.2-.15-47.55-21.77-47.4-48,.15-26.37,21.54-47.51,47.94-47.38Z"/>
</svg>