<?xml version="1.0" encoding="UTF-8"?>
<svg id="_Слой_1" data-name="Слой_1" xmlns="http://www.w3.org/2000/svg" viewBox="0 0 1834.2 1794">
  <defs>
    <style>
      .cls-1 {
        fill: #0d4256;
      }
    </style>
  </defs>
  <path class="cls-1" d="M1108.91,1295.44c-100.48-1.18-203.67-33.25-296.5-97.48-10.23-7.07-15.81-6.98-24.78,2.03-136.38,137.06-273.26,273.63-409.77,410.56-22.09,22.16-47.57,34.27-78.91,28.94-33.38-5.68-56.6-25.1-67.16-57.48-10.57-32.4-3.2-61.76,20.49-85.95,40.62-41.47,82-82.2,123.05-123.24,97.95-97.93,195.8-195.94,294.01-293.61,7.61-7.57,8.37-12.43,2.1-21.52-211.91-307.31-67.8-727.22,288.13-840.27,304.75-96.79,632.16,91.8,702.27,404.46,64.53,287.75-105.13,566.63-377.11,649.89-53.22,16.29-107.81,23.84-175.82,23.67ZM742.42,743.83c-.1,210.56,170.18,381.36,380.7,381.84,211,.48,382.48-170.47,382.59-381.42.11-210.41-170.38-381.38-380.8-381.88-210.99-.5-382.39,170.44-382.5,381.46Z"/>
  <path class="cls-1" d="M1123.45,1040.84c-163.87-.31-296.31-133.13-296.19-297.05.12-164.42,133.41-297.02,298.05-296.5,163.7.52,295.88,133.68,295.49,297.67-.4,163.79-133.45,296.19-297.34,295.88ZM1083.25,771.87c-20.45-20.94-37.06-38.47-54.24-55.41-18.94-18.68-45.3-19.29-62.44-2.07-17.22,17.3-16.27,43,2.79,62.29,26.32,26.64,52.84,53.1,79.47,79.44,20.45,20.23,44.87,20.51,65.38.15,55.1-54.7,110-109.62,164.73-164.7,19.21-19.33,19.79-45.06,2.28-62.27-17.37-17.07-43.52-16.24-62.44,2.54-41.81,41.51-83.44,83.21-124.99,125-3.51,3.53-5.84,8.22-10.55,15.03Z"/>
</svg>