<?xml version="1.0" encoding="UTF-8"?>
<svg id="_Слой_1" data-name="Слой_1" xmlns="http://www.w3.org/2000/svg" viewBox="0 0 1834.2 1794">
  <defs>
    <style>
      .cls-1 {
        fill: #fff;
      }
    </style>
  </defs>
  <path class="cls-1" d="M1688.09,1136.53c0,160.02.01,320.04,0,480.07,0,38.83-12.53,51.45-51.03,51.47-70.24.03-140.48.05-210.72-.02-34.83-.03-48.73-14.06-48.73-49.23-.03-321.63-.03-643.26,0-964.88,0-36.02,13.93-50.1,49.68-50.15,69.71-.09,139.42-.05,209.14-.02,38.43.02,51.65,13.08,51.66,51.11.03,160.55.01,321.1.01,481.65ZM1456.53,1589.31c6.76.3,11.94.73,17.11.74,39.58.06,79.19-.74,118.74.42,15.39.45,18-5.12,17.99-18.92-.35-290.28-.26-580.57-.3-870.86,0-5.62-.49-11.24-.76-17.01h-152.78v905.63Z"/>
  <path class="cls-1" d="M1277.57,1222.91c0,130.97.02,261.95,0,392.92,0,39.59-12.6,52.22-51.98,52.24-69.71.02-139.42.04-209.13,0-35.4-.03-49.39-13.67-49.4-48.49-.05-265.11-.05-530.23,0-795.34,0-34.27,13.87-48.09,48.03-48.12,71.82-.08,143.65-.09,215.47,0,32.96.05,46.93,14.08,46.96,47.55.11,133.09.04,266.17.05,399.26ZM1197.75,1590.08c.71-4.65,1.31-6.71,1.31-8.77.06-238.01.01-476.02.29-714.03.01-11.05-4.59-13.11-14.18-13.03-40.11.34-80.24.94-120.31-.26-16.27-.49-20.14,4.37-20.1,20.34.54,226.4.37,452.8.37,679.2q0,36.56,36.27,36.56h116.36Z"/>
  <path class="cls-1" d="M851.28,246.93c-23.19,16.94-43.15,31.44-63.02,46.07-26.36,19.4-52.54,39.06-79.02,58.31-21.73,15.8-44.98,13.67-58.91-4.89-14.12-18.81-9.7-41.79,11.93-57.75,68.8-50.8,137.71-101.46,206.76-151.92,23.39-17.09,44.72-13.99,61.77,9.06,50.54,68.35,100.84,136.86,151.04,205.45,15.64,21.36,13.03,45.04-5.8,58.75-18.79,13.68-41.37,8.8-57.61-12.84-26.62-35.47-53.04-71.09-79.57-106.63-3.35-4.48-6.88-8.83-11.59-14.85-6.98,30.61-12.66,58.92-19.93,86.82-72.5,278.08-319.33,499.71-603.35,541.05-36.97,5.38-74.5,7.46-111.86,9.56-27.45,1.54-44.92-13.7-45.79-36.94-.89-23.79,16.46-40.68,44.15-40.99,109.12-1.22,212.92-25.15,308.58-77.66,197.42-108.38,314.56-274.54,351.02-497.1.5-3.04.56-6.14,1.2-13.5Z"/>
  <path class="cls-1" d="M867.2,1343.89c0,91.36.04,182.72-.02,274.08-.02,36.55-13.36,50.05-49.4,50.08-71.29.05-142.59.07-213.88-.02-32.9-.04-47.2-14.28-47.21-47.43-.09-184.83-.09-369.66.01-554.5.02-33.69,14.62-47.94,48.53-47.97,71.29-.06,142.59-.07,213.88,0,33.51.04,48.01,14.6,48.05,48.5.1,92.42.03,184.83.04,277.25ZM635.96,1590.08c46.5,0,91.28-.6,136.02.35,14.46.31,17.45-4.52,17.41-18.06-.45-152.55-.28-305.1-.32-457.65,0-5.62-.52-11.24-.8-16.88h-152.31v492.25Z"/>
  <path class="cls-1" d="M146.14,1431.58c0-63.31-.07-126.62.03-189.93.05-33.33,13.87-47.24,47.03-47.28,72.28-.09,144.56-.11,216.83,0,31.91.05,46.53,14.54,46.56,46.4.11,127.15.12,254.29,0,381.44-.03,30.82-14.95,45.73-45.67,45.8-73.33.15-146.67.16-220,0-29.84-.07-44.65-14.97-44.72-44.92-.16-63.84-.05-127.67-.05-191.51ZM377.29,1589.06v-315.55c-5.95-.31-11.08-.81-16.21-.82-40.12-.06-80.25.46-120.36-.32-13.14-.25-16.94,3.67-16.87,16.87.53,95.02.27,190.05.33,285.08,0,4.6.61,9.2,1.01,14.74h152.11Z"/>
</svg>