<?xml version="1.0" encoding="UTF-8"?>
<svg id="_Слой_1" data-name="Слой_1" xmlns="http://www.w3.org/2000/svg" viewBox="0 0 1834.2 1794">
  <defs>
    <style>
      .cls-1 {
        fill: #0d4256;
      }
    </style>
  </defs>
  <path class="cls-1" d="M1123.29,1519.57c-162.14,0-324.3-1.17-486.43.66-54.34.61-97.37-33.59-97.23-96.76.74-325.98.75-651.97,0-977.95-.15-63.34,43.03-98.05,97.11-96.86,101.36,2.24,202.81.89,304.22.35,13.55-.07,17.42,3.66,17.34,17.28-.57,92.81-.33,185.62-.28,278.43.02,32.25,11.43,42.66,43.39,38.21,28.85-4.02,54.63-16.28,71.98-39.69,28.37-38.27,77.62-36.26,103.51-1.16,18.37,24.91,45.51,38.06,76.59,41.21,28.38,2.88,39.17-7.11,39.19-35.62.09-92.81.36-185.62-.29-278.43-.1-15.11,2.99-20.47,19.48-20.34,101.98.82,203.97.33,305.95.45,59.52.07,93.37,34.27,93.37,94.14.03,327.13.02,654.26,0,981.39,0,60.8-33.75,94.65-94.6,94.68-164.44.08-328.87.03-493.31.03ZM1405.26,1380.96c44.1,0,88.21.12,132.31-.05,19.07-.07,30.19-8.09,33.35-23.2,4.06-19.41-10.34-33.96-34.39-33.99-88.21-.13-176.41-.12-264.62-.01-21.91.03-34.98,11.23-34.82,29.15.15,17.37,13.61,28.05,35.86,28.09,44.1.09,88.21.03,132.31.02ZM1473.64,1184.96c-22.27,0-44.55-.25-66.82.08-18.58.28-30.67,11.11-31.23,27.11-.54,15.47,11.39,29.08,29.41,29.45,45.66.93,91.37.92,137.03.12,17.69-.31,29.96-14.14,29.53-29.45-.44-15.71-12.91-26.96-31.12-27.22-22.27-.32-44.54-.08-66.82-.08Z"/>
  <path class="cls-1" d="M1014.27,620.56c0-14.26,0-23.28,0-32.31,0-74.38.19-148.76-.2-223.14-.06-11.2,2.03-16.23,14.88-16.11,64.65.62,129.32.46,193.97.1,10.1-.06,13.98,2.5,13.93,13.36-.4,80.1-.19,160.2-.3,240.31,0,3.75,2.02,8.87-2.01,11.02-5.1,2.73-8.17-2.58-11.37-5.37-9.04-7.9-17.38-16.64-26.67-24.22-43.31-35.37-100.25-34.86-143.1,1.26-12.15,10.24-23.69,21.21-39.13,35.11Z"/>
  <path class="cls-1" d="M289.65,962.45c-44.08,0-88.16.09-132.24-.04-21.68-.06-34.04-10.09-34.42-27.37-.4-17.91,12.36-28.57,34.9-28.59,88.16-.08,176.32-.09,264.48,0,21.93.02,33.87,9.78,34.22,27.36.36,18.4-11.75,28.56-34.7,28.62-44.08.11-88.16.03-132.24.03Z"/>
  <path class="cls-1" d="M323.71,1102.24c-32.6,0-65.21.16-97.81-.05-20.66-.13-33.4-11.32-33.38-28.62.02-17.04,12.98-28.49,33.74-28.56,65.78-.23,131.56-.24,197.34,0,21.22.08,33.14,11.01,33.03,28.85-.1,17.86-11.98,28.19-33.39,28.32-33.18.2-66.35.05-99.53.06Z"/>
  <path class="cls-1" d="M359.44,1184.93c22.34,0,44.69-.26,67.02.08,18.21.27,29.24,10.15,30.11,26.04.92,16.66-9.66,30.17-27.83,30.54-46.37.96-92.78.91-139.14-.21-17.45-.42-28.54-13.82-28.23-28.87.33-15.94,12.65-27.2,31.05-27.49,22.34-.35,44.68-.08,67.02-.08Z"/>
</svg>