<?xml version="1.0" encoding="UTF-8"?>
<svg id="_Слой_1" data-name="Слой_1" xmlns="http://www.w3.org/2000/svg" viewBox="0 0 1834.2 1794">
  <defs>
    <style>
      .cls-1 {
        fill: #0d4256;
      }
    </style>
  </defs>
  <path class="cls-1" d="M926.18,135.49c414.08-2.74,754.22,336.07,755.47,751.66,1.23,409.08-326.11,755.35-750.72,756.91-425.97,1.56-758.89-338.51-758.39-754.91.51-431.72,351.8-755.54,753.64-753.65ZM384.38,850.21c36.93,0,73.87-.2,110.8.12,10.93.1,17.4-1.93,17.89-15.16,3.4-92.44,20.24-182.61,48.08-270.72,3.99-12.63.98-17.57-11.99-20.64-52.41-12.41-103.77-28.47-153.73-48.64-10.53-4.25-16.19-1.37-21.52,7.38-12.35,20.3-25.97,39.89-37.52,60.62-45.36,81.43-72.53,168.69-80.66,261.59-2.21,25.27-1.14,25.42,23.47,25.45,35.06.05,70.11.01,105.17,0ZM1471.23,850.23c26.93,0,53.87,0,80.8,0,49.31,0,50.23-.12,44.17-48.21-13.71-108.88-52.73-208.16-115.2-298.4-7.07-10.21-13.67-12-24.96-7.43-48.22,19.54-97.81,35.18-148.4,47.12-16.28,3.84-18.18,10.55-13.56,24.84,27.88,86.22,42.24,174.99,47.88,265.23.81,13.02,5.74,17.23,18.4,17.04,36.95-.58,73.91-.2,110.87-.18ZM385.04,930.21c-36.32,0-72.66.57-108.96-.25-16.6-.38-23.19,5.78-20.74,22.11.74,4.93.23,10.04.87,14.99,14.34,111.16,51.46,213.68,115.39,306.25,7.76,11.24,14.71,14.33,27.81,9.11,47.13-18.8,95.31-34.85,144.89-45.6,19.51-4.23,20.05-12.24,14.95-28.52-26.5-84.57-42.18-171.22-46.07-259.81-.61-14-5.8-18.61-19.17-18.43-36.32.48-72.64.17-108.96.15ZM1470.81,930.25c-35.69,0-71.39.42-107.08-.2-14.55-.25-21.1,3.88-22.1,19.86-5.65,90.22-20.6,178.88-48.46,265.06-3.89,12.04-.72,16.74,11.26,19.75,52.22,13.13,103.72,28.79,153.69,48.95,11.64,4.69,17.19-.03,23.13-8.62,67.64-97.88,106.74-206.1,118.64-324.39,1.62-16.11-4.86-20.91-20.12-20.62-36.31.69-72.63.22-108.95.23ZM1114.07,850.22c42.59,0,85.19-.57,127.76.3,15.82.32,20.88-5.13,19.91-20.64-5.33-85.39-21.22-168.72-46.88-250.29-4.04-12.85-12.19-13.6-23.33-11.67-68.49,11.87-137.37,20.48-206.97,21.2-14.16.15-18.24,5.26-18.15,18.83.47,74.53.57,149.06-.06,223.59-.13,15.34,5.76,19.17,19.95,18.94,42.58-.68,85.18-.24,127.76-.26ZM737.42,850.18c43.22,0,86.45-.49,129.66.27,15.03.27,19.5-5.42,19.4-19.79-.47-73.91-.47-147.83,0-221.75.09-14.41-4.53-19.59-19.43-19.84-68.31-1.16-136.06-9.02-203.27-20.94-15.02-2.66-21.24,1.49-25.68,15.74-25.61,82.29-41.45,166.18-45.63,252.36-.66,13.64,5.38,14.07,15.27,14.02,43.22-.2,86.44-.09,129.67-.08ZM966.68,1058.36c0,37.58.35,75.17-.2,112.74-.19,12.66,3.84,18.29,17.1,18.09,14.36-.22,28.76,1.13,43.12,2.12,55.58,3.85,110.87,10.08,165.76,19.77,9.97,1.76,18.34.69,22.13-11.33,25.7-81.54,41.79-164.82,47.11-250.2.94-15.12-5.35-19.63-19.63-19.57-85.18.38-170.37.47-255.55-.03-15.94-.09-20.46,6.26-20.13,21.31.78,35.69.25,71.4.29,107.1ZM738.03,930.16c-42.59,0-85.2.43-127.78-.24-14.14-.22-17.95,4.27-17.26,18.55,3.99,82.42,19.55,162.63,43.68,241.33,7.31,23.85,8.49,24.42,33.09,20.01,64.78-11.62,130.16-17.88,195.85-20.45,15.08-.59,21.1-4.53,20.96-20.39-.61-72.66-.56-145.32-.06-217.98.1-15.29-5.16-21.29-20.71-21.05-42.58.64-85.19.22-127.78.22ZM966.65,1410.01c0,35.66-.48,71.34.28,106.99.24,11.33-6.6,27.78,4.22,32.87,9.62,4.53,21.01-8.22,30.38-15.24,80.62-60.27,131.15-143.02,173.01-232.25,6.81-14.52-4.6-14.39-12.42-15.57-58.73-8.9-117.61-16.2-177.13-17.44-13.92-.29-18.75,4.88-18.56,18.62.58,40.66.21,81.34.21,122.01ZM983.76,509.63c56.61-1.37,118.16-7.65,179.4-17.25,14.03-2.2,15.08-7.97,9.4-20.4-22.5-49.18-49.78-95.46-82.32-138.53-28.8-38.13-61.12-72.95-102.45-98.1-5.61-3.41-11.76-10.25-18.42-6.38-5.79,3.36-2.61,11.55-2.63,17.53-.19,61.35-.12,122.7-.12,184.06,0,21.91.03,43.82.02,65.73,0,8.01.2,15.79,17.12,13.34ZM886.25,1412.88c0-41.33-.38-82.67.21-124,.21-14.64-5.12-19.86-19.85-19.46-58.91,1.62-117.19,9.07-175.44,17.09-12.64,1.74-16.93,5.42-10.47,19.11,24.41,51.74,52.93,100.92,88.01,146.1,28.17,36.29,59.8,69.07,99.44,93.32,12.79,7.83,18.65,7.13,18.36-10.06-.68-40.7-.22-81.41-.26-122.12ZM886.33,367.96c0-41.99-.25-83.98.14-125.96.13-13.99-3.68-16.96-16.02-9.22-19.18,12.04-37.37,25.26-53.68,40.96-58.68,56.5-99.79,124.92-135,197.55-7.1,14.65-4.26,19.39,11.17,21.59,58.3,8.31,116.75,14.38,175.64,16.94,15.26.66,18.11-4.58,17.96-17.79-.49-41.35-.18-82.72-.2-124.08ZM731.51,1534.99c-1.61-3.67-1.97-5.54-3.05-6.79-54.23-62.62-95.33-133.34-128.44-208.89-4.52-10.31-10.32-12.26-20.55-9.82-42.68,10.19-84.37,23.56-126.05,37.16-16.06,5.24-14.57,9.78-3.94,20.24,59.59,58.63,127.18,105.46,203.43,139.6,24.88,11.14,50.23,21.38,78.6,28.5ZM1120.77,1535.34c31.2-7.42,56.17-18.43,81.12-29.31,76.18-33.2,142.76-80.45,202.02-138.44,11.62-11.38,11.04-16.27-5.44-21.7-39.89-13.15-80.06-25.09-120.67-35.81-12.98-3.43-19.48-.56-24.71,11.68-15.02,35.18-32.61,69.14-52.16,102.04-22.69,38.17-49.13,73.73-80.16,111.55ZM1123.1,247.2c7.45,9.1,15.05,18.08,22.33,27.31,44.54,56.42,79.47,118.57,108.39,184.14,4.7,10.65,9.76,14.17,21.18,11.24,43.09-11.07,85.61-23.92,127.65-38.5,10.81-3.75,13.38-8.02,4.07-16.42-16.27-14.68-31.74-30.29-48.49-44.39-68.89-58.02-146.74-99.59-235.13-123.38ZM730.25,245.8c-108.75,31.73-202.49,88.3-282.19,168.44-10.57,10.63-4.36,14.02,5.49,17.67,41.19,15.28,83.42,26.98,125.99,37.63,10.15,2.54,16.48-.44,20.75-10.39,33.12-77.04,76.1-148.07,129.96-213.35Z"/>
</svg>