<?xml version="1.0" encoding="UTF-8"?>
<svg id="_Слой_1" data-name="Слой_1" xmlns="http://www.w3.org/2000/svg" viewBox="0 0 1834.2 1794">
  <defs>
    <style>
      .cls-1 {
        fill: #0d4256;
      }
    </style>
  </defs>
  <path class="cls-1" d="M368.25,1634.17V282.63h168.47v167.76h760.84v-167.65h168.4v1351.43H368.25ZM706.73,703.95h590.14v-82.4h-590.14v82.4ZM1297.2,1128.36h-590.25v82.46h590.25v-82.46ZM1296.88,1382.23h-589.91v82.58h589.91v-82.58ZM706.79,957.48h590.08v-82.28h-590.08v82.28ZM537.96,1381.63v83.36h82.46v-83.36h-82.46ZM537.67,703.89h82.94v-82.81h-82.94v82.81ZM537.46,1211.06h83.21v-82.43h-83.21v82.43ZM537.52,957.44h83.1v-82.22h-83.1v82.22Z"/>
  <path class="cls-1" d="M622.48,192.29h589.72v173.49h-589.72v-173.49Z"/>
</svg>