<?xml version="1.0" encoding="UTF-8"?>
<svg id="_Слой_1" data-name="Слой_1" xmlns="http://www.w3.org/2000/svg" viewBox="0 0 1834.2 1794">
  <defs>
    <style>
      .cls-1 {
        fill: #0d4256;
      }
    </style>
  </defs>
  <path class="cls-1" d="M506.41,1404.35c-32.59,32.9-61.92,63.46-92.48,92.73-8.45,8.1-19.91,15.13-31.14,17.81-19.59,4.68-38.07-5.95-46.91-22.93-9.33-17.93-6.53-38.73,8.81-54.45,27.52-28.22,55.53-55.97,83.64-83.61,3.8-3.73,9.33-5.69,16.37-9.83-32.97-28-53.27-59.6-90.49-74.04-61.03-23.67-120.67-50.91-180.85-76.75-42.85-18.4-49.34-52.61-16.3-85.7,38.64-38.71,77.6-77.12,115.9-116.17,14.62-14.9,30.91-20.9,51.85-18.41,78.28,9.34,156.63,18.07,235.04,26.27,7.2.75,17.37-1.52,22.08-6.36,39.87-40.96,78.8-82.82,117.95-124.46,2.28-2.43,4.11-5.28,6.83-8.82-5.68-3.42-10.65-6.49-15.69-9.43-174.88-102.04-349.78-204.06-524.65-306.12-26.59-15.52-36.35-37.81-26.13-61.1,2.89-6.59,7.5-12.83,12.6-17.98,40.56-40.97,81.57-81.5,122.14-122.47,14.97-15.11,32.17-19.35,52.66-14.86,56.25,12.33,112.65,23.97,168.87,36.46,9.95,2.21,16.41-.14,23.35-7.27,26.81-27.54,53.86-54.86,81.5-81.57,25.2-24.35,63.14-17.15,75.61,13.91,7.61,18.95,3.02,35.89-10.81,50.32-12.27,12.8-25.05,25.13-37.53,37.73-3.31,3.35-6.37,6.95-11.33,12.4,11.25,2.55,20.19,4.67,29.17,6.59,57.78,12.4,115.61,24.59,173.3,37.36,7.68,1.7,11.86.6,17.57-5.35,29-30.21,58.49-59.97,88.54-89.14,19.13-18.57,47.39-17.91,65.04.06,17.22,17.53,17.46,44.73-.38,63.99-13.72,14.81-28.5,28.64-42.73,42.98-3.32,3.35-6.34,6.99-11.11,12.3,41.11,8.84,79.84,17.57,118.82,25.01,4.48.86,11.43-4.5,15.41-8.7,78.65-82.97,157.19-166.05,235.39-249.43,33.63-35.86,73.22-60.73,121.66-71.19,96.32-20.8,193.87,24.03,242.77,111.96,46.34,83.33,33.33,192.1-35.46,259.65-85.07,83.54-172.68,164.49-259.76,245.96-10.77,10.08-13.9,18.89-10.28,33.26,8.53,33.86,15.11,68.22,23.26,105.98,9.14-9.11,16.55-16.49,23.95-23.88,10.11-10.1,19.9-20.54,30.38-30.24,19.96-18.48,47.24-18.53,65.08-.62,17.78,17.85,18.13,45.8-.63,65.06-29.22,30-59.39,59.07-88.82,88.86-3.18,3.22-6.55,9.13-5.75,12.95,13.99,67.01,28.6,133.88,43.13,200.78.19.88.97,1.63,2.91,4.74,9.19-9.06,18.02-17.74,26.83-26.45,7.71-7.63,15.07-15.62,23.12-22.86,19.48-17.51,46.37-17.17,63.97.43,17.54,17.53,18.43,44.92.35,63.86-26.88,28.15-54.53,55.58-82.52,82.62-8.17,7.89-9.8,15.13-7.36,26.02,12.48,55.71,23.95,111.65,36.08,167.44,4.46,20.52-.28,37.61-15.38,52.53-39.96,39.49-79.43,79.46-119.25,119.09-29.63,29.49-60.93,25.14-82.19-11.31-102.05-174.88-204.06-349.78-306.1-524.66-2.9-4.98-5.98-9.85-9.64-15.86-5.13,4.63-9.17,8.15-13.06,11.82-39.1,36.83-78,73.87-117.42,110.35-7.63,7.07-10.61,13.97-9.39,24.4,9.1,77.81,17.29,155.73,26.71,233.49,2.66,21.91-2.6,39.17-18.49,54.68-39.49,38.55-78.13,77.97-117.25,116.9-31.52,31.37-66.19,24.42-83.92-16.81-26.27-61.07-52.75-122.06-78.31-183.42-7.55-18.13-17.4-33.73-31.88-47.08-12.59-11.61-23.64-24.89-37.25-39.45ZM603.82,1373.87c4.91-4.48,8.58-7.74,12.15-11.1,227.66-214.64,455.32-429.28,682.96-643.95,87.11-82.15,174.33-164.19,261.19-246.59,43.07-40.86,57.89-90.46,36.68-146.51-19.99-52.83-60.99-81.28-117.44-84.43-44.34-2.48-79.17,17.76-109.08,49.51-295.62,313.85-591.51,627.43-887.3,941.11-3.28,3.48-6.26,7.24-7.61,8.8,11.16,11.76,21.42,22.58,32.36,34.12,30.75-30.89,61.47-62.17,92.68-92.94,20.26-19.98,47.56-20.7,66.07-2.66,19.01,18.54,18.49,46.16-1.58,67.18-10.88,11.4-22.18,22.42-33.35,33.55-20.15,20.07-40.35,40.09-60.96,60.56,11.65,11.69,21.94,22.02,33.23,33.36ZM986.25,563.78c-5.43-1.59-8.6-2.75-11.87-3.45-86.62-18.64-173.26-37.2-259.88-55.84-124.2-26.72-248.37-53.55-372.62-80.04-6.17-1.32-15.44-2.55-19.02.77-22.31,20.68-43.4,42.66-65.77,65.09,4.92,3.25,8.42,5.81,12.15,7.99,163.79,95.6,327.65,191.09,491.29,286.95,9.04,5.3,14.01,4.55,21.1-3.03,65.3-69.81,131.01-139.23,196.58-208.79,2.3-2.44,4.32-5.16,8.04-9.64ZM1283.77,860.15c-4.45,3.42-6.49,4.73-8.22,6.35-70.65,66.55-141.12,133.31-212.11,199.5-8.67,8.09-5.55,13.64-1.05,21.34,94.92,162.46,189.71,325,284.55,487.51,2.68,4.58,5.61,9.02,9.49,15.22,19.11-19.16,36.44-37.97,55.39-54.99,11.37-10.22,13.16-20.05,9.99-34.6-38.65-177.51-76.61-355.17-114.77-532.78-7.52-35.02-15.14-70.01-23.26-107.56ZM262.38,1131.66c43.92,18.91,85.3,37.05,127.1,54.18,3.95,1.62,12.12-1.56,15.62-5.15,27.78-28.54,54.93-57.71,82.19-86.76,2.14-2.28,3.62-5.18,5.42-7.81-1.8-1.22-2.53-2.12-3.36-2.21-51.3-5.86-102.6-11.77-153.95-17.23-3.78-.4-9,1.32-11.71,3.94-20.07,19.45-39.67,39.38-61.3,61.05ZM715,1584.19c20.3-20.18,39.25-38.02,56.81-57.15,4.8-5.23,8.13-14.59,7.47-21.62-4.43-47-10.09-93.88-15.47-140.79-.41-3.54-1.66-6.99-3.05-12.63-34.27,32.3-66.87,62.85-99.1,93.78-2.04,1.95-2.73,7.48-1.55,10.28,17.73,42.08,35.89,83.98,54.89,128.13Z"/>
</svg>