<?xml version="1.0" encoding="UTF-8"?>
<svg id="_Слой_1" data-name="Слой_1" xmlns="http://www.w3.org/2000/svg" viewBox="0 0 1834.2 1794">
  <defs>
    <style>
      .cls-1 {
        fill: #fff;
      }
    </style>
  </defs>
  <path class="cls-1" d="M1098.4,1431.21c-38.59,87.72-130.98,109.4-200.59,70.72-18.2,39.22-53.09,64.22-81.42,95.01-75.96,82.54-207.81,49.19-236.47-56.35-2.93-10.79-9.67-8.31-16.46-8.19-67.8,1.16-124.73-41.05-138.25-106.32-4.16-20.08-11.31-26.8-31.1-30.93-64.69-13.52-107.82-70.56-105.8-136.96.36-11.96-2.92-16.06-14.15-19.51-85.9-26.41-123.51-125.72-76.79-202.55,5.53-9.1,6.93-16.07.06-24.35-34.04-41.01-41.23-88.22-39.86-140.63,2.89-110.62,1.12-221.36.65-332.06-.08-19.11,5.97-33.85,19.66-47.14,93.17-90.46,185.93-181.33,278.86-272.04,23.14-22.59,47.79-22.75,70.68-.06,36.41,36.1,72.33,72.69,109.03,108.5,5.35,5.22,13.53,9.31,20.92,10.39,56.87,8.29,113.9,15.5,170.8,23.59,10.2,1.45,18.08-.29,26.58-6.41,42.26-30.4,91.28-39.92,141.8-45.77,59-6.82,117.82-15.22,176.61-23.69,6.85-.99,14.18-5.6,19.27-10.59,35.92-35.23,71.29-71.02,106.89-106.57,24.69-24.65,48.85-24.76,73.66.01,94.94,94.81,189.68,189.82,284.76,284.49,13.06,13,19.14,27.49,19.07,46.06-.41,116.44-.14,232.89-.35,349.33-.01,8-.18,16.92-3.52,23.85-39.1,81.16-76.24,164.02-136.44,232.22-51.29,58.11-106.52,112.81-161.13,167.9-11.09,11.18-26.59,18.7-41.2,25.45-11.06,5.11-24.09,5.82-35.91,9.54-3.86,1.22-9.34,5.52-9.6,8.77-6.88,84.9-96.26,147.56-185.08,115.02-1.29-.47-2.77-.42-5.16-.74ZM759.7,444.04c-5.14-1.42-8.19-2.66-11.34-3.08-32.74-4.41-65.47-9.06-98.3-12.65-5.58-.61-13.37,1.8-17.28,5.68-126.35,125.74-252.4,251.78-378.18,378.09-4.09,4.11-6.62,11.49-6.81,17.45-.76,23.94,1.29,48.05-.78,71.83-2,23.08,10.8,38.27,21.35,55.06,1.77-.53,2.32-.54,2.67-.82,1.88-1.48,3.75-2.97,5.53-4.55,45.81-40.59,97.75-50.77,153.13-24.87,54.7,25.58,81.08,71.19,79.28,131.9-.29,9.92,3.38,12.43,12,15.23,55.68,18.06,88.99,56,97.7,114.25,1.37,9.18,4.4,12.62,13.78,14.03,58.81,8.83,97.06,42.43,114.86,98.88,2.68,8.49,5.72,11.38,14.68,10.85,42.79-2.52,78.66,13.03,108.63,43.19,19.59,19.71,39.24,39.37,58.98,58.93,22.83,22.63,52.49,24.29,72.8,4.24,20.39-20.13,19.13-50.11-3.36-72.81-24.61-24.85-49.46-49.48-74.2-74.21-29.82-29.82-59.69-59.58-89.41-89.49-12.58-12.66-16.32-28.12-11.48-45.02,4.74-16.57,16.4-26.86,33.18-30.52,17.56-3.83,31.68,2.95,43.98,15.32,47.65,47.91,95.46,95.64,143.22,143.43,24.39,24.4,48.56,49.03,73.31,73.07,16.25,15.78,38.16,18.59,57.02,8.61,18.58-9.83,29.23-29.1,23.75-50.66-3.12-12.25-10.5-24.89-19.42-33.96-68.88-70.03-138.65-139.19-208.05-208.7-21.13-21.16-22.86-47.69-4.69-66.39,18.58-19.13,45.99-17.81,67.51,3.54,24.84,24.63,49.47,49.47,74.21,74.2,46.78,46.74,93.38,93.66,140.44,140.11,20.69,20.42,50.18,20.53,69.64,1.4,18.48-18.16,18.64-48.02.31-69.01-2.2-2.52-4.62-4.86-6.99-7.24-137.54-137.59-275.08-275.18-412.65-412.75-3.3-3.3-6.86-6.33-12.82-11.79-3.74,5-6.44,9.68-10.12,13.38-36.49,36.69-72.77,73.61-109.86,109.7-39.89,38.81-87.59,51.08-140.43,33.89-98.39-32.02-127.13-154.06-54.15-228.42,58.4-59.5,117.79-118.03,176.72-177.02,3.6-3.6,7-7.39,11.63-12.29ZM1413.04,1117.03c3.1-5.57,4.8-11.05,8.38-14.68,59.17-60.04,103.19-130.16,141.28-204.96,17.66-34.68,29.13-68.84,25.26-107.98-1.04-10.56-3.02-18.58-10.83-26.36-126.91-126.45-253.56-253.15-380.04-380.04-6.52-6.54-12.61-8.25-21.54-7-59.29,8.28-118.49,17.69-178.04,23.42-53.88,5.19-96.54,27.46-133.99,66.4-72.37,75.26-147.23,148.11-221.05,221.97-4.06,4.06-8.43,7.91-11.92,12.44-12.93,16.78-14.98,35.16-5.13,53.83,9.61,18.21,25.89,28.58,46.06,24.84,12.7-2.35,26.37-9.43,35.7-18.43,47.89-46.24,94.49-93.82,141.59-140.88,27.98-27.96,50.77-27.94,78.75.03,115.85,115.83,232.23,231.14,347.26,347.78,46.17,46.82,98.08,88.49,138.25,149.61ZM247.52,685.76c102.8-102.57,206.25-205.78,308.28-307.58-20.7-20.82-42.84-43.09-65.41-65.79-.63.44-2.34,1.31-3.66,2.59-77.77,75.86-155.52,151.73-233.13,227.75-2.82,2.76-5.8,7.09-5.83,10.72-.4,45.29-.26,90.59-.26,132.3ZM1271.35,326.58c104.82,104.85,210.43,210.49,316.21,316.3,0-39.6.42-80.13-.4-120.64-.14-7.09-3.73-15.83-8.71-20.86-77.08-77.89-154.65-155.3-232.14-232.79-3.24-3.24-6.81-6.15-8.79-7.93-23.3,23.21-45.55,45.37-66.17,65.92ZM423.31,1053.39c-2.47-21.68-13.34-39.46-31.59-47.29-19.48-8.37-37.79-5.64-53.15,8.93-19.77,18.76-38.98,38.13-57.93,57.72-19.47,20.13-19.59,49.09-.99,68.42,18.9,19.64,49.01,20.35,69.47.78,19.7-18.84,39.36-37.82,57.56-58.07,7.53-8.38,11.2-20.22,16.63-30.49ZM663.98,1498.42c.69,27.05,9.93,42.22,28.39,51.24,18.34,8.95,38.9,5.74,54.37-9.13,19.65-18.88,39.01-38.09,57.82-57.81,19.17-20.1,18.75-49.44-.04-68.45-18.7-18.92-48.45-19.64-68.42-.64-20.08,19.11-40.06,38.46-58.53,59.09-7.49,8.36-10.89,20.39-13.58,25.7ZM563.31,1443.84c4.93-2.03,16.45-3.73,23.58-10.24,23.25-21.23,45.92-43.3,66.83-66.8,16.25-18.27,12.84-46.58-4.63-63.85-17.48-17.27-45.42-19.76-63.82-3.1-22.63,20.49-44.22,42.29-64.77,64.87-13.32,14.64-14.56,33-6,51,8.55,17.99,23.35,27.15,48.82,28.12ZM376.53,1254.9c.77,27.58,10.16,42.77,28.84,51.27,19.3,8.78,37.8,5.85,53.18-8.55,19.87-18.6,39.12-37.91,57.98-57.54,20-20.83,19.76-50.33.32-69.4-19.44-19.08-48.89-19.04-69.58.83-18.94,18.2-38.05,36.36-55.44,56-8.06,9.1-12.22,21.66-15.31,27.39Z"/>
</svg>