<?xml version="1.0" encoding="UTF-8"?>
<svg id="_Слой_1" data-name="Слой_1" xmlns="http://www.w3.org/2000/svg" viewBox="0 0 1834.2 1794">
  <defs>
    <style>
      .cls-1 {
        fill: #0d4256;
      }
    </style>
  </defs>
  <path class="cls-1" d="M929.27,1446.92c-128.37,0-256.75.03-385.12-.01-35.4-.01-42.47-3.93-52.25-28.7-71.21-180.29-142.41-360.59-213.57-540.89-10.84-27.46-4.63-36.41,31.6-46.32q49.39-13.52,49.39-51.29c0-80.37-.04-160.74.06-241.11,0-7.29-.04-14.68,1.53-21.84,4.17-19.06,15.4-26.05,42.25-26.35,29.38-.32,58.78-.46,88.15.02,14.89.24,20.94-3.83,20.65-14.75-.5-18.53-1.29-37.17.78-55.6,2.54-22.63,28.7-33.04,51.78-21.96,11.62,5.58,14.71,13.91,14.67,23.39-.06,18.55.37,37.1-.06,55.64-.21,9.21,4.71,12.71,17.62,13.32,49.54,2.32,49.51,2.6,49.52-32.44,0-46.65-.18-93.3.09-139.94.15-26.78,11.74-35.1,48.56-35.94,1.55-.04,3.09-.02,4.64-.03q62.44-.61,62.44-46.81c0-17.42-.32-34.85.13-52.27.51-19.78,12.87-29.67,39.38-29.81,76.56-.4,153.12-.39,229.68,0,26.38.13,39.14,10.06,39.53,29.78.55,27.53.8,55.09-.07,82.61-.4,12.6,6.35,17.08,23.16,16.62,21.62-.59,43.32-.49,64.95.04,32.96.81,46.08,10.57,46.23,34.63.32,51.14.76,102.29-.27,153.43-.31,15.16,5.53,22.37,27.4,20.07,5.3-.56,10.88-.49,16.21-.01,18.43,1.63,24.71-4.23,23.84-17.38-1.15-17.38-.17-34.83-.19-52.26-.02-15.11,9.54-24.82,30.51-26.91,17.48-1.75,33.23,7.84,35.18,23.56,2.35,18.97,1.9,38.16,1.47,57.24-.26,11.51,5.49,16.14,21.7,15.83,31.69-.59,63.41-.4,95.11-.06,29.5.32,42.09,9.57,42.13,31.14.19,92.17.54,184.35-.35,276.51-.14,14.85,6.38,21.74,25.8,26.53,72.79,17.97,72.64,18.48,51.53,71.71-69.33,174.84-138.71,349.68-208.11,524.5-8.56,21.55-16.58,26.04-47.92,26.06-129.92.09-259.84.04-389.76.04ZM896.27,1064.37c0-103.39,0-206.78,0-310.17q0-22.34-27.72-15.22c-161.59,41.57-323.32,82.85-484.67,124.9-41.62,10.85-39.5,3.88-26.41,38.38,1.85,4.87,3.79,9.72,5.75,14.56q8.51,20.93,36.34,14.23c106.23-25.9,212.42-51.86,318.65-77.76,10.23-2.49,20.26-5.53,31.39-5.45,17.77.12,29.65,6.02,33.64,18.73,3.76,12-2.85,21.03-17.95,26.29-8.32,2.9-17.23,4.96-26.01,7.11-109.14,26.67-218.26,53.37-327.5,79.81-12.92,3.13-22,5.4-16.8,18.34,51.19,127.2,101.77,254.53,151.98,381.94,5.03,12.75,13.04,18.04,32.3,17.9,96.64-.69,193.3-.73,289.93,0,21.38.16,27.66-4.51,27.53-20.05-.85-104.51-.44-209.03-.44-313.54ZM964.43,1063.06c0,104.56.41,209.12-.44,313.68-.13,15.79,5.24,21.48,28.26,21.27,95.13-.87,190.28-.78,285.41-.04,20.55.16,29.77-4.39,35.51-19.06,48.65-124.29,98.42-248.34,147.82-372.47q8.48-21.31-20.33-28.33c-111.44-27.09-222.95-54.05-334.31-81.32-25.99-6.36-34.97-17.29-28.7-32.57,5.84-14.24,24.24-19.69,49.62-13.86,31.69,7.28,63.12,15.14,94.65,22.79,81.39,19.75,162.83,39.4,244.09,59.43,13.78,3.4,23.64,4.28,27.62-8.62,3.54-11.48,8.12-22.87,13.51-33.97,5.68-11.69,2.72-17.74-15.03-22.26-167.69-42.69-335.04-86.1-502.49-129.28-25.04-6.46-25.17-6.42-25.18,12.62-.04,104-.02,208-.02,311.99ZM929.96,539.6c-156.97,0-313.95-.03-470.92.09-8.97,0-21.59-2.96-25.94,3.58-7.9,11.86-5.64,25.56-2.08,38,3.05,10.64,17.87,6.51,27.73,6.55,85.83.3,171.66.07,257.5.26,26.36.06,41.96,9.35,42.17,24.01.2,14.19-16.17,23.99-41.86,24.88-6.94.24-13.92.1-20.88.1-80.42,0-160.84.35-241.26-.23-19.31-.14-25.72,4.77-25.44,18.59.85,42.14.93,84.3-.05,126.44-.34,14.52,4.44,17.14,23.61,12.12,149.67-39.24,299.76-77.64,449.47-116.78,19.31-5.05,36.68-5.24,56.04-.17,150.4,39.43,301.15,78.17,451.51,117.69,17.31,4.55,21.53,2.08,21.33-10.75-.68-42.7-1.03-85.43.16-128.12.42-15.18-7.2-19.12-27-18.97-85.82.62-171.66.28-257.49.24-10.01,0-20.05.4-29.81-2.19-15.75-4.19-24.55-12.49-23.2-24.3,1.33-11.64,11.38-19.65,27.73-21.89,7.5-1.03,15.4-.69,23.12-.69,86.61-.04,173.21.03,259.82-.11,8.16-.01,19.87,2.64,23.37-3.84,6.59-12.17,5.45-25.89,1.29-38.16-3.7-10.9-19.77-6.12-30.32-6.14-156.2-.29-312.4-.2-468.6-.2ZM925.68,490.18c62.64,0,125.29-.36,187.93.23,17.77.17,24.71-3.39,24.36-17.12-1.06-41.02-.97-82.06-.05-123.08.3-13.46-6.61-17.5-24.38-17.45-125.28.36-250.56.36-375.84,0-17.82-.05-24.65,4.1-24.36,17.5.89,41.02.99,82.06-.05,123.08-.35,13.77,6.8,17.23,24.48,17.07,62.63-.59,125.28-.23,187.93-.23ZM918.64,202.34c-23.18,0-46.37.3-69.54-.11-13.58-.24-19.86,3.27-19.48,13.64.64,17.4.62,34.82.01,52.22-.37,10.47,6.42,13.68,19.72,13.61,44.81-.25,89.63-.26,134.45,0,13.53.08,19.84-3.49,19.49-13.8-.59-17.4-.62-34.82,0-52.22.38-10.53-6.41-13.7-19.76-13.45-21.62.4-43.27.11-64.9.11Z"/>
  <path class="cls-1" d="M390.45,1454.69c51.3.88,93.33,9.5,132.47,25.25,25,10.06,48.54,22.16,74.13,31.29,70.37,25.1,137.72,20.25,200.02-14.51,91.1-50.83,200.98-55.34,298.99-11.72,17.8,7.92,35.07,16.58,53.57,23.52,72.6,27.24,142.49,25,208.42-11.77,96.56-53.85,216.19-55.31,316.7-3.82,17.93,9.19,24.2,24.98,14.54,36.65-9.73,11.75-30.43,14.46-50.92,5.5-27.34-11.96-55.6-22.13-86.95-27.03-58-9.05-107.94,4.06-153.47,29.61-38.78,21.76-82.17,34.67-131.51,38.05-60.23,4.12-114.83-6.82-165.3-29.63-30.25-13.67-60.01-27.62-94.58-35.13-57.53-12.5-110.12-4.82-157.67,20.87-40.9,22.09-83.96,39.37-135.91,43.59-66.88,5.44-126.68-7.72-182.39-33.45-29.43-13.59-59.5-25.84-93.56-32.78-46.07-9.38-88.51-2.6-129.72,12.55-5.5,2.02-10.49,4.82-16.1,6.63-17.81,5.75-33.68,3.53-45.07-8.17-9.92-10.2-4.92-26.03,10.82-34.18,41.76-21.61,89.9-28.55,133.45-31.32Z"/>
  <path class="cls-1" d="M397.95,1586.22c61.7-.62,110.93,12.68,156,35.1,32.1,15.97,64.89,29.67,104.85,33.58,47.52,4.65,90.21-3.28,125.31-25.53,85.89-54.45,205.11-56.52,296.94-13.49,36.95,17.31,72.93,35.59,119.03,39.23,45.54,3.6,86.28-3.81,121.39-24.41,95.84-56.23,206.83-60.44,308.52-10.7,24.7,12.08,31.57,25.7,19.69,39.05-11.61,13.05-31.93,14.38-57.28,2.64-34.57-16.01-70.75-26.9-112.93-26.18-37.17.63-69.94,9.32-98.51,25.66-99.51,56.92-200.39,60.97-306.16,10.96-41.14-19.45-81.97-37.9-134.15-36.66-39.6.94-74.26,10.2-104.52,27.96-88.82,52.1-190.75,57.53-288.6,14.78-21.85-9.55-43.07-19.98-65.68-28.47-44.74-16.79-91.08-19.15-138.93-6.24-33.57,9.06-56.68-1.41-54.56-23.24,1.18-12.14,12.58-17.59,25.66-21.6,28.79-8.82,58.69-14,83.96-12.44Z"/>
</svg>