<?xml version="1.0" encoding="UTF-8"?>
<svg id="_Слой_1" data-name="Слой_1" xmlns="http://www.w3.org/2000/svg" viewBox="0 0 1834.2 1794">
  <defs>
    <style>
      .cls-1 {
        fill: #fff;
      }
    </style>
  </defs>
  <path class="cls-1" d="M698.93,1190.11c-24.96,25.17-49.85,50.27-75.84,76.48,21.91,21.58,44.87,44.2,68.37,67.35-4.31,4.82-7.3,8.49-10.64,11.83-119.77,119.83-239.36,239.84-359.46,359.34-59.57,59.27-149.02,62.17-208.89,7.93-65.19-59.06-66.97-156.04-3.2-220.31,86.65-87.33,173.9-174.05,260.85-261.09,35.82-35.86,71.51-71.86,108.25-108.79,23.51,24.13,46.25,47.47,68,69.79,27.69-27.42,52.82-52.32,78-77.25-236.42-274.99-196.48-692.76,81.66-923.93C962.05-21.35,1339.71-4.97,1578.61,230.88c238.88,235.82,258.42,614.76,45.84,874.75-226.98,277.61-647.63,323.89-925.53,84.48ZM1120.27,1243.84c303.92.46,551.17-246.38,551.38-550.45.21-303.17-245.99-550.12-549.35-551.03-303.83-.91-551.47,245.75-551.99,549.8-.52,304.31,245.62,551.23,549.96,551.69ZM477.61,1266.82c-1.67,1.43-4.63,3.64-7.22,6.23-96.47,96.36-192.91,192.75-289.31,289.17-3.41,3.41-6.78,7.01-9.45,11.01-20.43,30.64-3.11,71.5,32.98,77.39,19.81,3.23,35.32-5.17,49.08-18.97,95.48-95.82,191.17-191.44,286.75-287.16,2.91-2.91,5.34-6.29,6.79-8.02-23.58-23.6-46.31-46.34-69.62-69.66Z"/>
  <path class="cls-1" d="M1120.71,1143.65c-249.24-.15-450.62-202.09-450.22-451.47.4-248.33,202.1-449.59,450.58-449.57,248.85.01,450.86,202.57,450.34,451.56-.52,248.34-202.36,449.64-450.7,449.49ZM1121.78,1043.51c193.29-.36,349.63-157.35,349.41-350.85-.22-193.39-156.93-349.86-350.37-349.82-194.16.04-350.72,157.22-350.21,351.59.5,193.31,157.57,349.44,351.16,349.08Z"/>
  <path class="cls-1" d="M1268.34,522.48c25.45,25.62,48.12,48.43,69.9,70.36-88.66,88.51-178.17,177.87-265.95,265.49-54.72-54.67-110.92-110.81-165.36-165.2,19.66-20.18,42.33-43.44,66.22-67.96,30.85,31.16,63.3,63.92,96.2,97.14,67.47-67.75,133.13-133.68,198.99-199.83Z"/>
</svg>