<?xml version="1.0" encoding="UTF-8"?>
<svg id="_Слой_1" data-name="Слой_1" xmlns="http://www.w3.org/2000/svg" viewBox="47.23 -51.645 1834.2 1794">
  <defs>
    <style>
      .cls-1 {
        fill: #fff;
      }
    </style>
  </defs>
  <path class="cls-1" d="M1241.03,620.38c-1.6,7.08-3.28,14.15-4.78,21.25-9.27,43.9-18.51,87.8-27.73,131.71-10.06,47.9-20.06,95.82-30.14,143.72-9.85,46.82-19.75,93.63-29.64,140.44-2.46,11.65-4.69,23.36-7.58,34.9-1.27,5.07-3.39,10.1-6.05,14.6-6.33,10.71-16.89,14.9-28.99,12.13-6.52-1.49-12.51-4.13-17.98-8.11-45.6-33.18-91.26-66.29-136.89-99.43-6.87-4.99-8.99-4.92-15.26.67-25.83,23.06-51.63,46.15-77.49,69.17-1.53,1.36-3.35,2.76-5.26,3.25-5.43,1.4-10.05-3.03-9.57-8.74,1.55-18.26,3.05-36.53,4.62-54.79,1.91-22.22,3.86-44.44,5.79-66.66.27-3.08.72-6.17.69-9.25-.03-3.86,1.5-6.64,4.34-9.19,57.75-51.92,115.53-103.8,173.11-155.91,29.28-26.5,58.18-53.41,87.2-80.2,2.83-2.61,5.54-5.46,7.76-8.58,3.04-4.27,1.64-7.05-3.6-7.61-4.46-.47-8.66.15-12.66,2.65-111.96,69.92-223.96,139.77-335.9,209.72-4.01,2.5-7.58,3.03-12.1,1.55-44.24-14.46-88.55-28.71-132.8-43.14-4.38-1.43-8.59-3.48-12.71-5.57-6.14-3.12-11.09-7.54-13.65-14.18v-3.32c3.44-9.5,10.47-15.36,19.58-18.9,31.36-12.21,62.77-24.31,94.15-36.45,152.82-59.14,305.63-118.31,458.49-177.35,10.44-4.03,20.48-9.43,31.97-10.45,14.54-1.29,27.91,5.19,31.59,21.34.56,2.45,1,4.94,1.49,7.41v3.32Z"/>
  <path class="cls-1" d="M964.33,1483.76c-352.02,0-638.42-286.39-638.42-638.41S612.31,206.95,964.33,206.95s638.4,286.39,638.4,638.41-286.38,638.41-638.4,638.41ZM964.33,276.32c-313.77,0-569.05,255.27-569.05,569.04s255.28,569.04,569.05,569.04,569.03-255.27,569.03-569.04-255.26-569.04-569.03-569.04Z"/>
</svg>