<?xml version="1.0" encoding="UTF-8"?>
<svg id="_Слой_1" data-name="Слой_1" xmlns="http://www.w3.org/2000/svg" viewBox="0.01 -46.66 1834.2 1794">
  <defs>
    <style>
      .cls-1 {
        fill: #fff;
      }

      .cls-2 {
        fill: none;
        stroke: #fff;
        stroke-miterlimit: 10;
        stroke-width: 48px;
      }
    </style>
  </defs>
  <g>
    <path class="cls-2" d="M1237.24,801.7c.5-28.84-3.02-57.17-8.05-85.36-7.55-40.75-24.99-74.63-81.33-80.33-74.63-7.37-149.25-5.19-217.84-6.21-76.3.51-146.74-.16-217,4.37-58.36,3.85-84.69,25.65-95.59,82.67-9.22,48.13-7.72,96.76-7.88,145.23-.17,47.28-.5,94.74,8.05,141.53,8.89,47.97,31.86,70.6,79.83,77.99,8.05,1.18,15.93,3.01,23.98,3.36,136.34,5.19,272.68,6.37,408.85-.16,64.73-3.19,89.72-27.01,100.45-91.07,10.74-63.72,5.7-127.95,6.54-192.02ZM1017.55,860.74c-48.3,25.83-96.43,51.65-144.39,77.97-14.59,7.89-17.44,1.18-17.27-11.73.17-24.83,0-49.64,0-74.63s.17-50.98,0-76.48c0-13.25,4.86-16.77,17.11-9.89,47.79,26.33,95.93,52.32,144.05,78.32,10.23,5.54,11.57,10.56.5,16.44Z"/>
    <path class="cls-1" d="M862.83,976.76c-8.81,0-15.78-2.7-20.93-5.8-13.98-8.45-20.93-23.39-20.68-44.4.11-16.24.07-32.68.05-49.16l-.05-25.05.05-25.57c.02-16.9.07-33.79-.05-50.7,0-25.07,11.54-37.03,21.2-42.7,9.71-5.68,25.83-9.87,47.56,2.34,47.47,26.15,95.52,52.1,143.57,78.04,21.95,11.87,26.49,27.81,26.44,39.1-.02,9.2-3.48,26.41-26.1,38.46-48.17,25.77-96.17,51.53-144.02,77.78-10.36,5.61-19.37,7.65-27.03,7.65ZM890.65,815.21c-.02,3.91-.02,7.81-.02,11.71l-.05,25.43.05,24.9c0,4.13,0,8.26.02,12.39,22.94-12.46,45.82-24.8,68.72-37.08-23.01-12.44-45.91-24.87-68.72-37.34ZM1001.3,830.11l16.26,30.62-16.03-30.76c-.09.04-.16.08-.23.14Z"/>
  </g>
  <path class="cls-1" d="M917.11,1488.75c-352.02,0-638.42-286.39-638.42-638.41S565.09,211.93,917.11,211.93s638.4,286.39,638.4,638.41-286.38,638.41-638.4,638.41ZM917.11,281.3c-313.77,0-569.05,255.27-569.05,569.04s255.28,569.04,569.05,569.04,569.03-255.27,569.03-569.04-255.26-569.04-569.03-569.04Z"/>
</svg>