<?xml version="1.0" encoding="UTF-8"?>
<svg id="_Слой_1" data-name="Слой 1" xmlns="http://www.w3.org/2000/svg" viewBox="0 0 212.6 212.6">
  <path d="M50.19,161.44c-1.45,0-2,.79-2.01,1.63v6.57c-.02,2.17-1.7,3.18-3.75,3.17l-22.08-.15c-1.92-.01-2.45-2.74-2.47-4.17l-.24-22.79c-.14-12.79-.34-25.22.69-37.9.47-5.76,2.12-10.83,5.55-15.42l8.34-9.17-8.05-.43c-2.81-.15-5.31-.79-7.39-2.82-1.51-1.47-2.1-4.51-.47-6.25,3.17-3.38,7.35-6.15,11.8-7.15,3.78-.85,6.82,1.54,7.23,5.05.17,1.47.73,2.85,1.56,3.86l4.13-6.93,12.09-20.86c2.62-4.52,7.48-7.81,13.01-7.82l75.14-.05c6.8,0,11.47,3.81,14.74,9.34l13.59,22.97c.78,1.32,3.26-.53,3.55-1.55.94-3.29,4.13-4.8,7.42-4,4.22,1.03,7.92,3.59,11.09,6.52,1.23,1.13,1.68,2.63,1.58,4.15-.24,3.5-4.82,5.37-9.13,5.57l-8.47.39c10.78,10.73,14.82,16.16,14.82,31.31l.02,54.44c0,1.48-1.08,3.66-2.5,3.67l-21.7.21c-2,.02-4.11-.52-4.13-2.83l-.05-6.48c0-.83-.46-2.03-1.68-2.03l-112.23-.02ZM166.16,79.1l-14.44-25.48c-1.88-4.45-5.95-6.52-10.79-6.33l-70.52.03c-2.59,0-6.48.66-7.79,2.92l-15.94,27.36c-.38.66.55,1.69,1.42,1.57l118.07-.06ZM61.11,115.8c.63-1.11-.1-6.06-1.66-8.26-.85-1.2-2.28-1.78-3.69-2.25-7.34-2.45-14.66-4.26-22.24-5.8-1.13-.23-2.11.81-2.4,1.76-.56,1.83-.05,3.47.33,5.2.81,3.68,3.21,6.12,6.84,7.22,6.12,1.86,21.33,4.77,22.82,2.13ZM171.5,114.24c2.86-.78,5.78-1.7,7.69-3.97,2.33-2.79,2.95-8.99.9-10.46-.75-.54-1.59-.46-2.57-.2l-21.67,5.89c-3.73,1.01-5.18,6.26-4.92,9.89.21,3.01,14.96.37,20.56-1.15ZM137.47,120c4.65-3.22,7.48-12.1,3.18-11.59-25.37,3.02-43.25,2.85-68.59.02-5.01-.56-2.27,9.89,5.62,13.45,3.69,1.67,7.44,2.99,11.58,3.62,13.8,2.09,36.88,2.33,48.21-5.5ZM49.24,146.64c.31-.61.31-1.42.02-2.14-3.37-8.6-13.94-12.43-16.23-10.54-3.13,2.59-.08,11.57,8.05,13.35,3.3.72,7.21,1.17,8.16-.68ZM180.29,136.82c.06-2.16-1.84-3.73-3.95-3.27-6.24,1.38-11.23,5.59-13.77,11.37-.37,1.37.27,2.39,1.62,2.78,7.72,1.41,15.88-3.17,16.1-10.88Z"/>
</svg>