<?xml version="1.0" encoding="UTF-8"?>
<svg id="_Слой_1" data-name="Слой 1" xmlns="http://www.w3.org/2000/svg" viewBox="0 0 212.6 212.6">
  <path d="M68.98,114.14c2.01-2.8.34-7.77,3.48-6.96l8.53,2.2c8.85,2.29,19.45,2.95,28.14.14.79-.26,1.42.08,1.68.93.03,11.25,4.29,20.62,13.31,28.32l-46.38.06c-1.64,0-3.14-.99-3.75-2.28l-3.73-7.88c-2.86,13.52-14.69,22.21-28.24,21.01-13.96-1.24-24.48-13.09-24.28-26.88s10.93-25.35,24.98-26.33c-4.22-3.96-7.75-7.52-10.36-12.2-.58-1.04-.6-2.28-.12-3.37.36-.82,1.37-2.04,2.65-2.03l7.47.04c2.11.01,4.07,1.41,4.75,3.47,2.75,8.34,9.65,11.13,18.06,12.68,5.57,1.03,11.31.77,16.27-2.16l5.86-4.46c8.07-6.14,24.64-4.66,34.48.27.38.19.68.68.7.94.03.33-.18,1.05-.58,1.35-4.67,3.58-8.12,8.11-10.42,13.57-2.54,2.77-6.02,3.99-9.79,4.29-8.66.76-17.03-.53-25.46-2.49l-14.64-3.39c3.22,3.49,5.69,6.5,7.39,11.16ZM43.88,128.74c-3.09-.05-4.76-3.64-4.61-6.24s2.22-5.32,5.07-5.44l7.28-.3,8.39-.2c-2.89-7.07-9.92-11.49-17.42-10.66-9.31,1.04-16.19,9.17-15.34,18.52.9,9.92,9.9,17.15,19.67,15.73,6.29-.91,11.38-5.16,13.39-11.16l-16.42-.27Z"/>
  <path d="M132.32,113.12c-3.26,13.21,12.72,25.22,7.8,29.48-.95.82-2.53,1.01-3.94.34-6.99-3.33-12.92-8.7-16.9-15.35-1.94-3.24-2.95-6.47-3.67-10.11-1.63-8.2.92-16.32,6.71-22.3,3-3.1,6.11-5.77,9.58-8.33,5.19-3.83,9.9-7.81,6.74-13.46l-6.83-9.57c-2.74-3.84,12.46,3.54,22.56,18.59,3.98,5.93,2.43,11.8-2.81,16.52-.07.36.84,1.21,1.2,1.12,12.91-8.96,30.89-5.05,38.66,8.76,5.79,10.31,4.14,22.99-3.86,31.47-7.91,8.38-20.19,10.87-30.89,5.93-14.48-6.68-19.77-24.56-11.41-38.21-.24-1.83-2.62-2.69-4.31-2.43-4.27.65-7.55,3.15-8.63,7.56ZM164.83,126.58l-12.36-12.55c-3.94,7.48-1.7,16.39,4.5,21.41,6.33,5.12,15.28,5.28,21.87.22,7.41-5.7,8.76-16.13,3.49-23.65-5.11-7.3-15.29-9.75-23.07-4.88l11.76,11c2.38,1.83,2.62,5.1.92,7.47-1.46,2.03-5.14,2.99-7.12.98Z"/>
</svg>