<?xml version="1.0" encoding="UTF-8"?>
<svg id="_Слой_1" data-name="Слой 1" xmlns="http://www.w3.org/2000/svg" viewBox="0 0 212.6 212.6">
  <path d="M149.15,124.57c-6.02-2-12.27-2.72-17.93.03l-68.64,33.33-17.13,8.28c-5.1,2.47-11.69,2.16-17.02-.02-10.22-4.18-15.66-15.45-12.88-26.11,1.63-6.24,5.67-11.86,11.45-14.54l13.07-6.06,73.96-34.43c4.77-2.22,7.19-6.73,8.68-11.44,4.35-13.79,13.45-23.38,27.35-27.54,10.21-3.06,21.1-1.22,29.08,5.95,1.84,1.65,2.84,3.95,2.53,6.39-.25,2.01-1.67,4.52-3.95,5.61l-19.7,9.45c-4.38,2.1-2.79,11.17,1.83,16.75,2.95,3.55,7.08,4.06,11.13,2.14l18.76-8.93c1.79-.85,3.75-.97,5.28.11,1.38.97,2.35,2.37,2.57,4.5,1.01,9.82-2.16,19.84-9.01,27.16-10.1,10.79-25.29,14.07-39.42,9.36ZM153.51,115.5c8.9,2.89,17.8,1.65,25.09-3.99,6.34-4.91,10.46-15.09,8.18-15.78-.41-.13-1.14.21-1.65.44l-14.01,6.36c-5.99,2.05-12.18.51-16.69-3.92-9.9-9.73-12.55-27.75-2.15-32.78l13.45-6.51c.63-.3,2.32-1.43,1.62-2.23-6.77-7.66-28.56.46-33.84,14.81l-3.54,9.63c-3.17,6.43-8.69,10.6-15.11,13.55l-40.03,18.35-41.43,19.21c-4.55,2.11-7.52,5.34-8.61,9.75-1.16,4.68.04,9.49,3.47,12.8,4.84,4.67,11.03,4.08,16.67,1.32l82.88-40.57c8-3.92,17.24-3.17,25.71-.42Z"/>
</svg>