<?xml version="1.0" encoding="UTF-8"?>
<svg id="_Слой_1" data-name="Слой 1" xmlns="http://www.w3.org/2000/svg" viewBox="0 0 212.6 212.6">
  <path d="M99.63,159.22l-45.59-.07c-3.55,11.6-15.97,17.24-26.71,12.74s-15.52-17.88-9.39-28.57l.29-22.8c.09-6.94,7.24-10.8,14-9.52l.11-49.42c.01-4.67,3.94-8.08,8.45-8.06l42.04.1c3.46,0,8.19,1.83,10.02,4.96l22.04,37.81c2.1,3.61,2.78,7.15,2.81,11.27l.09,11.71c2.18-.2,3.57-.06,5.75-.02V45.02s-5.67-.3-5.67-.3c-1.77-.09-2.87-1.39-2.79-2.9s1.27-2.67,3.03-2.66l17.37.12c2.47.02,4.91,2.35,4.92,5l.09,57.76,5.83.13c2.66.03,5.44,1.99,5.44,4.94l.06,49.45,43.28.06c2.03,0,2.57,1.82,2.25,3.31-.39,1.79-1.53,2.16-3.47,2.15l-42.71-.18c-3.27-.01-4.74-3.32-4.74-6.16l.05-47.74c-2.13-.49-3.89-.46-5.99.07v31.74c6.45,11.42,1.57,25.6-9.83,31.28-11.44,5.69-25.76.84-31.02-11.86ZM129.11,90.96c0,3.91.46,7.36-.15,11.03,2.3.32,3.74.34,5.94-.08v-56.84c-2.16-.6-3.67-.51-5.66,0l-.14,10.3c-.05,3.65,0,7.12.01,10.76l.02,12.29-.03,12.54ZM111.98,104.92l-54.57-.21c-6.05-.02-10.76-5.07-10.78-10.92l-.11-34.57h-6.29c-1.11,0-2.35.87-2.36,2.2l-.14,49.37,43.51.12c4.74.01,8.77,2.58,12.04,5.61l8.88,8.87c3.19-2.35,6.28-3.72,9.97-4.93l-.15-15.54ZM69.12,68.05l.06,31.18,40.82-.12-20.79-36.18c-2.05-2.81-4.64-3.92-7.98-3.9l-29.02.16-.17,33.85c-.02,3.37,2.25,6.13,5.62,6.17l5.94-.19.04-31.31c0-1.67,1.58-2.93,2.93-2.8s2.55,1.33,2.56,3.13ZM134.84,122.48l-.02-14.51c-2.05-.47-3.65-.31-5.47.15-.35,4.19-.51,8.04.02,12.27l5.46,2.08ZM89.32,153.42c-.59-9.72,2.64-17.75,8.6-24.34l-8.26-8.46c-2.46-2.01-5.45-4.28-9.1-4.29l-51.48-.13c-3.47,0-5.68,3.28-5.65,6.28l.15,14.59c6.84-4.17,14.42-4.63,21.06-.94,6.01,3.34,10.13,9.63,10.16,17.42l34.52-.13ZM134.35,132.52c1.42-2.79-.04-3.73-1.45-4.5-8.56-4.67-18.75-4.2-26.82,1.36-7.28,5.02-11.98,13.82-11.15,23.33.1,1.13,1.03.82,1.43.88s1.73,0,1.64-.92c-.82-9.17,3.97-17.63,11.48-21.84,8.12-4.55,17.42-3.67,24.86,1.68ZM137.53,153.31c1.39-9.03-4.17-16.93-12.67-19.32-5.92-1.67-12.32.4-16.46,4.62s-6.12,10.75-4.31,16.7c2.4,7.95,9.62,13.1,17.83,12.49,7.6-.56,14.34-6.22,15.61-14.5ZM32.5,139.42c-8.13,1.38-13.24,9.42-11.59,16.93s8.92,12.65,16.57,11.32c7.67-1.33,13.14-8.96,11.63-16.7s-8.33-12.95-16.61-11.55Z"/>
  <path d="M126.4,150.9c.13-2.07,1.68-3.17,3.05-2.99,2,.26,2.48,1.81,2.34,3.77-.42,5.98-5.55,10.41-11.36,10.35-5.93-.06-10.83-4.83-11.12-10.78s4.09-11.04,10.24-11.95c1.66-.25,3.36.59,3.77,2.16s-.95,3.24-2.7,3.34c-3.3.19-5.66,2.58-5.81,5.58s2.24,5.64,5.11,6.06c3.06.44,6.25-1.99,6.48-5.55Z"/>
  <path d="M37.63,148.21c-.45,3.33-5.76,1.64-5.48,5.22.14,1.78,1.31,3.09,2.78,3.05,4.25-.09,1.85-6.09,6.06-5.63,1.74.19,2.5,1.51,2.37,3.37-.34,4.72-4.45,8.19-8.9,7.82-4.6-.39-8-4.16-7.87-8.66.14-4.73,3.98-8.7,8.98-8.19,1.58.16,2.22,1.81,2.06,3.01Z"/>
</svg>