<?xml version="1.0" encoding="UTF-8"?>
<svg id="_Слой_1" data-name="Слой 1" xmlns="http://www.w3.org/2000/svg" viewBox="0 0 212.6 212.6">
  <path d="M70.31,165.77l-41.9-.04c-5.18,0-8.14-4.05-8.13-8.86l.09-64.91,5.44-7.28c1.58-2.12,3.34-2.91,6.06-2.9l40.05.17c3.05.01,6.4,3.46,6.41,6.65l.15,68.28c.01,4.73-2.87,8.91-8.17,8.9Z"/>
  <path d="M112.29,126.21l-20.37-.16c-2.69-.02-5.24-2.32-5.2-4.97l.37-25.5c.04-3.08,1.71-5.04,3.2-7.29l.43-13.14c.27-8.26,4.08-25.19,10.39-25.72,1.6-.13,3.32.42,4.46,1.83,11.02,13.62,6.04,34.63,8.08,37.39,1.14,1.54,2.97,3.23,3,5.39l.36,27.86c.03,2.34-2.26,4.33-4.71,4.31Z"/>
  <path d="M182.03,164.89l-46.58.13c-4.24.01-7.65-2.84-7.7-7.11l-.16-13.1c-.04-2.92,2.42-5.81,5.72-5.81l54.29-.04c2.82,0,4.7,2.31,4.66,4.82l-.16,11.73c-.07,5.16-4.49,9.36-10.07,9.38Z"/>
  <path d="M192.31,128.76c.1,2.79-1.47,5.03-4.29,5.03l-56.13.08c-2.19,0-3.86-.07-5.43-1.49-1.37-1.24-1.93-3.05-2.09-5.22l-1.37-18.45c-.09-1.19.07-2.18.77-2.94.57-.62,1.87-1.5,3.14-1.09l47.29,15.26,15.21,4.6c1.84.56,2.83,2.06,2.91,4.21Z"/>
  <path d="M114.07,165.85l-22.79-.05c-3.56,0-6.85-1.71-7.28-5.59l.04-13.77.52-7.95c.27-4.07,2.62-6.69,6.76-6.66l22.87.17c2.72.02,5.34,2.73,5.51,5.33l1,15.34c.18,2.82.54,5.44-.26,8.17-.85,2.91-3,5.01-6.37,5.01Z"/>
  <path d="M38.98,76.43c-2.26-.02-4.05-1.91-4.05-3.95l-.02-14.23c0-5.8-6.06-3.58-9.08-4.85-1.51-.63-2.16-2.33-1.79-3.71.35-1.27,1.79-2.86,3.59-2.86l32.52-.08c2.92,0,4.38,2.58,4.39,5.19v18.95c0,3.34-2.26,5.74-5.67,5.71l-19.89-.16Z"/>
</svg>