<?xml version="1.0" encoding="UTF-8"?>
<svg id="_Слой_1" data-name="Слой 1" xmlns="http://www.w3.org/2000/svg" viewBox="0 0 212.6 212.6">
  <path d="M110,190.49c-2.85.84-4.87.73-7.32-.4l-66.78-30.85-7.39-3.23c-2.59-1.13-3.52-2.5-3.51-5.39l.02-89.36c0-3.11,2.06-4.24,4.45-5.32l50.66-23.04,22.92-10.36c2.58-1.17,5.13-1.49,7.67.14l72.79,33.14c2.48,1.13,4.12,2.78,4.09,5.5l-.1,9.26-.05,73.62.08,7.19c.03,2.4-1.63,3.52-3.74,4.51l-73.8,34.6ZM53.69,67.77l42.62-20.52,24.19-11.91-13.56-6.07-21.7,9.54-47.33,21.48,15.78,7.48ZM71.03,82.67c-.38-2.88,1.28-4.22,3.43-5.28l42.94-21.09,23.35-11.46-11.54-5.22-53.04,25.54-17.88,8.5c-1.17.56-1.92,1.33-2.05,2.8l.03,28.21,14.68,6.75.08-28.75ZM108.02,91.54l66.96-31.31-25.37-11.37-65.79,32.07,21.08,10.19c1.01.49,1.9.74,3.11.42ZM110.66,181.59l69.87-32.57v-82.42c-.01-.38-1.47-.33-1.57-.03l-66.5,31.17c-2.04.96-2.04,1.92-2.04,3.99v24.65s.24,55.22.24,55.22ZM78.54,86.86l-.06,31.04c-.19,1.61-1.22,2.82-2.43,3.3-1.3.52-2.56,0-3.87-.64l-21.13-10.2c-1.3-.63-2.15-1.7-2.22-3.16v-33.32s-16.39-7.56-16.39-7.56l-.1,82.77,40.33,18.57,30.6,14.05.08-81.82c-.03-.87-.48-1.52-1.24-1.88l-23.56-11.16Z"/>
</svg>